<svg version="1.1" xmlns="http://www.w3.org/2000/svg" xmlns:xlink="http://www.w3.org/1999/xlink" x="0px" y="0px"
	 width="72px" height="48px" viewBox="0 0 34.39641 20.04891"><defs><style>.cls-1{fill:#fff;}.cls-1,.cls-2,.cls-3,.cls-4,.cls-5,.cls-6,.cls-7{fill-rule:evenodd;}.cls-2{fill:#b6d1cf;}.cls-3{fill:#a4bab8;}.cls-4{fill:#efc16f;}.cls-5{fill:#748986;}.cls-6{fill:#586865;}.cls-7{fill:#3e5150;}</style></defs><path class="cls-1" d="M28.59291,3.413c-.18307-.03212-.36622-.06063-.54883-.08662a.34958.34958,0,0,0-.09492-.033l-.14081-.02622a.2988.2988,0,0,0-.2144-.15091,4.4871,4.4871,0,0,0-1.07344-.07677.29593.29593,0,0,0-.21166.1003q-.19713-.00631-.39345-.02438a1.84486,1.84486,0,0,0-.72147-.10081.27553.27553,0,0,0-.2631.17324c-.07215.00526-.14418.00944-.216.01522a.34723.34723,0,0,0-.08.01581c-.17539.00157-.35122.00015-.52662-.00748a.3266.3266,0,0,0-.26144-.1144c-.2965.00379-.59216.005-.888.00127a.27442.27442,0,0,0-.169.051q-.24482.002-.48915-.00567a.34318.34318,0,0,0-.0887-.02944,7.53083,7.53083,0,0,0-1.83387-.16275.325.325,0,0,0-.07284.013q-.38649-.00574-.77385-.00262a15.00487,15.00487,0,0,0-2.837-.03666.35542.35542,0,0,0-.16579.0099h0q-.15637.00972-.31266.01921a.31179.31179,0,0,0-.29124.312,1.64387,1.64387,0,0,0-.12326.11624.8239.8239,0,0,0-.39474.332,2.36313,2.36313,0,0,0-.31065,1.32747.28093.28093,0,0,0,.21443.27779l-.0018.00625a2.70455,2.70455,0,0,0-.03668.85853.3104.3104,0,0,0,.036.10826c-.01883.245-.052.48962-.09386.7355a.36034.36034,0,0,0-.00234.0877,2.45465,2.45465,0,0,1-.28451.557c-.12081.1305-.23686.26526-.36126.39862a.288.288,0,0,0-.05342.08364c-.11629.14261-.224.29722-.33841.44548a.26407.26407,0,0,0-.11766,0c-.18782.04109-.37765.065-.56445.09887a5.85039,5.85039,0,0,1-1.517-.06233.291.291,0,0,0-.15341-.07566c-.448-.076-.89937-.12833-1.35026-.18415-.37237-.09251-.74033-.20952-1.10667-.32811a.28745.28745,0,0,0-.09453-.01412,1.12007,1.12007,0,0,0-.77072.06584,1.00813,1.00813,0,0,0-.84714.49446,1.48254,1.48254,0,0,0-.14026.09423.37344.37344,0,0,0-.09185.10706c-.05875.01194-.11755.02408-.17615.03491-.34525.06457-.4189.58271-.03225.64809a5.40084,5.40084,0,0,1,.73218.13536,2.95939,2.95939,0,0,0,.94821.964.3366.3366,0,0,0,.25113.07069,6.89011,6.89011,0,0,0,.85695.95841c.76065.75789,1.81326,1.83824,2.975,1.71782a1.15865,1.15865,0,0,0,.92155-.0373.29292.29292,0,0,0,.13853-.1908l.00863-.00369c.98-.51252.07336-2.608-.25953-3.588a2.56013,2.56013,0,0,0,.55143-.20134.27988.27988,0,0,0,.14822-.06836c.01025-.00884.01929-.01855.02959-.02761a3.22883,3.22883,0,0,0,1.15716-1.1194.29381.29381,0,0,0,.0131-.25186c.0151-.02364.03178-.04592.04648-.06984a.27059.27059,0,0,0,.01516-.25064,4.65165,4.65165,0,0,0,.33522-1.27069.32768.32768,0,0,0-.10192-.28577c.00313-.16751-.00181-.335-.01467-.50375.0171-.33233.03376-.6647.06025-.9968a.32724.32724,0,0,0-.00764-.09609c.02709-.091.05926-.183.09509-.27545a1.01814,1.01814,0,0,1,.17653-.261,1.00216,1.00216,0,0,1,.09817-.039c.03727-.01236.07118-.02631.10506-.04026a.337.337,0,0,0,.2185.017,4.64183,4.64183,0,0,1,.45784-.08532c.29811.00361.59686-.00951.89592-.034.56445.04059,1.12861-.00037,1.69632-.00086a.28522.28522,0,0,0,.1365-.03391c.18859.00014.37742.00185.56581.00643a13.44475,13.44475,0,0,0,2.78468.17459,11.21664,11.21664,0,0,0,2.46663.02641c.41891-.00248.836.01387,1.25247.04675a.30294.30294,0,0,0,.146.049c.10163.00841.2034.01888.30453.0308a.28558.28558,0,0,0,.12453.04879c.28852.042.57944.06433.868.10608a.31577.31577,0,0,0,.26155-.07263A.32772.32772,0,0,0,28.59291,3.413Z" transform="translate(-1.09464 -2.53774)"/><path class="cls-1" d="M8.84381,11.1683a.29607.29607,0,0,0-.2423-.20931l-.052-.00978A5.151,5.151,0,0,0,6.369,10.55644c-.12021-.0165-.24169-.03049-.36407-.04438-.15823-.01772-.31727-.03267-.4765-.04649A.32521.32521,0,0,0,5.33,10.3504a3.64058,3.64058,0,0,0-.63323-.062,5.09019,5.09019,0,0,0-1.31748-.02583l-.02967-.003a.32027.32027,0,0,0-.25765.07366,1.29984,1.29984,0,0,0-.33671.17.29872.29872,0,0,0-.24879.17687c-.05425.11116-.10978.21855-.16948.324a.29536.29536,0,0,0-.226.246l-.04.21448c-.0556.30048.37718.55285.56974.27421.05118-.07434.09682-.15081.145-.22647a.28092.28092,0,0,0,.12255-.1363c.02728-.06747.05574-.13385.086-.2a.70383.70383,0,0,1,.44384-.24609c.56872.067,1.142.06825,1.7114.12774a.31636.31636,0,0,0,.148.06363,5.93522,5.93522,0,0,1,2.13943.55256.2926.2926,0,0,0,.42959-.16306c.21949.05354.43844.10768.65923.15534A.31668.31668,0,0,0,8.84381,11.1683Z" transform="translate(-1.09464 -2.53774)"/><path class="cls-2" d="M33.08378,4.20457a2.0846,2.0846,0,0,0-1.15614.11607.29856.29856,0,0,0-.3319-.22632c-.048.00271-.0959.0079-.14371.01243a.31436.31436,0,0,0-.23126-.205,3.94956,3.94956,0,0,0-1.12392-.04744c-.24138-.01718-.48217-.04147-.72254-.078a.31814.31814,0,0,0-.16811-.08273,27.66958,27.66958,0,0,0-3.31491-.3618,4.66358,4.66358,0,0,0-1.56419.08084,33.12742,33.12742,0,0,1-4.14078-.00192,7.55188,7.55188,0,0,0-3.21811.27576c-.201.05153-.39873.11139-.592.1811a.30693.30693,0,0,0-.209.05081L16.04,4.0059a.31137.31137,0,0,0-.1238.34338c-.01837.04942-.03469.10006-.04971.15109a.31291.31291,0,0,0-.03291.09091l-.03.16091a.3052.3052,0,0,0,.0404.22679,2.91238,2.91238,0,0,0,.1019.90955.168.168,0,0,0-.01232.02,4.58407,4.58407,0,0,0-.498,1.85228,7.8013,7.8013,0,0,1-1.39448,1.64823.28591.28591,0,0,0-.13.09752.38232.38232,0,0,0-.108.13482.269.269,0,0,0-.02783.273,3.224,3.224,0,0,0,.37268,1.30084.36739.36739,0,0,0,.19928.18085.27655.27655,0,0,0,.06527.06088c-.03442.12615-.06454.25359-.09135.38309-.16327.3554-.3699.68792-.56332,1.02527a2.9562,2.9562,0,0,0-.97525.244c-.0294.00136-.05844.00343-.08733.00442a.35447.35447,0,0,0-.05244-.01612c-.12127-.02475-.24044-.0485-.3591-.06949a8.98276,8.98276,0,0,1-1.18228-.30849c-.48629-.80733-1.20266-1.4306-1.74378-2.19734-.0124-.03233-.02534-.06384-.03671-.09715a.32917.32917,0,0,0-.62936.05105c-.00249.014-.00313.02785-.00517.04193a.27838.27838,0,0,0-.00957.07854,2.178,2.178,0,0,0,.11335.95455c-.56335-.09476-1.12992-.16125-1.69707-.22357a.31648.31648,0,0,0-.20013-.13158A14.52014,14.52014,0,0,0,4.00362,10.994l-.01324-.00484a1.24224,1.24224,0,0,0-1.00729.1924,1.01282,1.01282,0,0,0-.17526.11251l-.04308.01218a.28264.28264,0,0,0-.21147.2541.34164.34164,0,0,0-.13611.07777,2.05394,2.05394,0,0,0-.26527.32493.36178.36178,0,0,0-.15686.2088c-.01867.06085-.03567.12238-.05354.18379a4.47155,4.47155,0,0,0-.24842.84785,1.53386,1.53386,0,0,0-.14753.33974.38765.38765,0,0,0-.04447.09011,7.09151,7.09151,0,0,0-.23824,3.26634,4.77931,4.77931,0,0,0,.09981,1.64417,3.80366,3.80366,0,0,0,.0797.62858,5.40833,5.40833,0,0,0,.29479,1.566,1.2379,1.2379,0,0,0,.37271.953.31723.31723,0,0,0,.25066.074.3254.3254,0,0,0,.0526.10506c-.03946.33783.48436.52591.615.1878a.24589.24589,0,0,0,.09366-.07628,4.74821,4.74821,0,0,0,.58848-3.173A2.74007,2.74007,0,0,0,4.311,17.77639c.217-.54389.507-1.04576.7256-1.58179a4.61481,4.61481,0,0,0,1.43415-.976q.15383-.09463.30775-.19011a10.66815,10.66815,0,0,0,1.246-.1938c.344-.06831.6909-.1131,1.03809-.1601a7.13461,7.13461,0,0,0,1.62811-.32082.28916.28916,0,0,0,.17973-.14959c.06749.05513.135.11273.2029.16521a.32371.32371,0,0,0,.1948.072c.22788.65361,1.05781.94211,1.94576,1.078.0445.04935.09278.09742.14433.14461a.28813.28813,0,0,0,.02236.02232l.00934.007a2.80319,2.80319,0,0,0,.99341.54593,2.90833,2.90833,0,0,0,1.64118.29026,2.89128,2.89128,0,0,0,.45642.04876,4.02714,4.02714,0,0,0,1.13032.05915,2.28387,2.28387,0,0,0,.99985.34631.29782.29782,0,0,0,.12742.45384,3.30574,3.30574,0,0,0,.92161.29436.37183.37183,0,0,0,.11849-.00576,3.985,3.985,0,0,0,.52923.22521.34494.34494,0,0,0,.398-.11575,1.61014,1.61014,0,0,0,.77815.1126.32866.32866,0,0,0,.29823-.35405c-.12988-.676-.76293-1.04023-1.35053-1.3213-.12908-.09794-.26161-.19076-.39734-.27688a4.77544,4.77544,0,0,0-.57219-.518c-.06426-.12381-.129-.24725-.19174-.37265-.11139-.22336-.23328-.43927-.35478-.65468-.16228-.34346-.33306-.68387-.49725-1.0265a32.52486,32.52486,0,0,1,1.76588-4.0474q.39945-.71688.84914-1.40223.17479-.17444.35236-.34332c.29458-.27914.611-.54457.884-.84255.41624-.12995.81948-.29727,1.22336-.46584.533-.07083,1.05053-.22408,1.581-.3301.82874-.1657,1.68911-.18985,2.52387-.33514a.36856.36856,0,0,0,.16945-.07541c.07682-.00955.15438-.021.23119-.03346.156-.02572.31083-.05631.46514-.08921a5.70517,5.70517,0,0,0,1.56659-.34568A5.66719,5.66719,0,0,0,31.265,5.07667c.23462-.02622.46812-.06318.70163-.09428.2349-.03113.60846-.26336.83078-.189C33.19281,4.92518,33.48305,4.33778,33.08378,4.20457Z" transform="translate(-1.09464 -2.53774)"/><path class="cls-3" d="M33.22117,3.88516q-.39317-.07138-.78719-.137a.30867.30867,0,0,0-.07084-.0226c-.25869-.04643-.518-.08889-.77737-.13024a.31917.31917,0,0,0-.1778-.10273c-.13676-.02945-.273-.05276-.40987-.07255a.30013.30013,0,0,0-.07294-.01729c-.04121-.00373-.08111-.00433-.12168-.00639a7.49883,7.49883,0,0,0-.752-.04841c-.07312-.01283-.146-.02428-.2187-.03726a.30606.30606,0,0,0-.22309.03957c-.09377.00259-.18783.00694-.28152.012-.2352-.03808-.47-.07587-.70529-.11015a.31623.31623,0,0,0-.36007.22589.281.281,0,0,0-.14531.16c-.80469.09261-1.6066.20312-2.40916.31513a6.16587,6.16587,0,0,0-.72087.03468.27427.27427,0,0,0-.24135-.0576q-.13552.02416-.27433.04922A13.663,13.663,0,0,0,21.61629,3.947c-.59266.03323-1.18583.04822-1.778.08738-.25116.01642-.50453.05408-.75859.09052a.31544.31544,0,0,0-.23791-.07216c-.17345.01307-.345.03517-.51628.06091a.27706.27706,0,0,0-.26659.04227c-.08093.013-.16144.02626-.24232.039a.34491.34491,0,0,0-.26753.23185c-.06556.01544-.13164.03149-.19742.04846a.281.281,0,0,0-.20751.33844,3.23289,3.23289,0,0,0-.45971.97963c-.05614.16456-.10343.33308-.14736.50322a14.17577,14.17577,0,0,0-.557,1.98386.30464.30464,0,0,0,.14592.32605c-.01737.06732-.03342.13483-.0504.20243a.3127.3127,0,0,0-.0547.14522c-.00453.04066-.00674.08077-.0099.12117-.02811.11989-.05543.24033-.07969.36144a.29343.29343,0,0,0,.08487.28556c.02734.31381.08059.62556.12816.94545.0596.398.08812.8.12063,1.20214a8.5077,8.5077,0,0,0,.09769.917c-.5054.38919-.98007.81721-1.48312,1.20876-.11017.029-.21879.05346-.32475.07494a.26825.26825,0,0,0-.23175-.16131,8.11229,8.11229,0,0,0-1.39592.04141,4.96,4.96,0,0,1-1.10571-.17033A4.98405,4.98405,0,0,1,9.564,11.26262a2.46856,2.46856,0,0,0-.74338-1.771c-.3174-.28012-.74443.21607-.42823.49514a2.05579,2.05579,0,0,1,.51855,1.69556l-.00008.00673a.36738.36738,0,0,0-.08731-.01128c-.07312-.00049-.1457.00138-.21793.00394a.34861.34861,0,0,0-.25463-.26993,3.51523,3.51523,0,0,0-1.87862.28615,3.96609,3.96609,0,0,0-3.10387-.05755.27.27,0,0,0-.159.12408,2.48248,2.48248,0,0,0-.6069.43581,2.07465,2.07465,0,0,0-.78069,1.14941,3.30269,3.30269,0,0,0-.48963,2.44945.34625.34625,0,0,0,.05175.13593c.0092.0853.02307.16949.04021.25281a3.67414,3.67414,0,0,0,.01956,1.069A6.76779,6.76779,0,0,0,1.58221,19.23a4.58538,4.58538,0,0,0,.39692,1.60815.26276.26276,0,0,0,.11816.11139c.01928.0468.03941.09374.06008.14029a1.27038,1.27038,0,0,0,.262.6626.3684.3684,0,0,0,.3321.132l.00067.0046a.32906.32906,0,0,0,.64831.03228,16.02992,16.02992,0,0,0,.49061-2.9186,2.89694,2.89694,0,0,0,.61054-1.12193c.1676-.463.32388-.92856.46062-1.39873a3.40784,3.40784,0,0,0,1.11234-.83129.30708.30708,0,0,0,.05678-.11305c.18782-.09384.38025-.17916.57555-.25644.17271-.06077.34455-.12169.51677-.18525.03226-.01193.0656-.02194.09786-.03387a7.70559,7.70559,0,0,0,1.00019-.18357.31155.31155,0,0,0,.15194.05163c.02841.00232.0582.00125.08722.00253l.00023.0016.00825-.00127a2.96556,2.96556,0,0,0,1.36435-.29185c.09317-.02942.18578-.06116.278-.09923a.332.332,0,0,0,.17531-.15628c.03328-.02213.06776-.04319.09986-.06639a.331.331,0,0,0-.04227-.56433,1.24594,1.24594,0,0,0-.35656-.11807.3316.3316,0,0,0-.02976-.353,4.98728,4.98728,0,0,0,.97521.77118l.04346.0254a.28978.28978,0,0,0,.11307.25526l.00615.004a.303.303,0,0,0,.10523.29388,3.71957,3.71957,0,0,0,1.16763.62681,5.03509,5.03509,0,0,0,.89038.476,2.9394,2.9394,0,0,0,1.90886.84565,4.95854,4.95854,0,0,0,2.23044.23092,5.553,5.553,0,0,0,1.52141.25833c.05755.05234.11649.10421.17558.15521q.16588.16648.34044.32254c.02272.01989.04581.04031.069.05984a5.74879,5.74879,0,0,0,.92074.66024.2736.2736,0,0,0,.30128-.00267l.03057.00914c.32667.129.66985-.30591.35731-.542a17.07961,17.07961,0,0,0-1.85682-1.27983l-.01144-.01085a.35479.35479,0,0,0-.1075-.0672.38583.38583,0,0,0-.01714-.11432,3.00472,3.00472,0,0,0-.43517-.92476.25809.25809,0,0,0-.02886-.03338.29151.29151,0,0,0,.01853-.2955.35731.35731,0,0,0-.005-.43433.255.255,0,0,0,.06654-.24567,3.31964,3.31964,0,0,0-.17631-.566,6.709,6.709,0,0,0-.35714-1.222.305.305,0,0,0-.097-.13034,3.351,3.351,0,0,0,1.03935-2.26974c.11336-.24025.21393-.48842.31124-.7357.42357-1.07738.93814-2.11644,1.42484-3.16784.207-.10858.41493-.217.61422-.3373a20.02376,20.02376,0,0,1,2.34405-.92969c.20289-.04588.40727-.08972.61242-.12943a11.5575,11.5575,0,0,0,2.68573-.29914c.43075-.02838.86208-.04837,1.29479-.04078a.26274.26274,0,0,0,.23238-.12558,12.12756,12.12756,0,0,0,1.59494-.19088c.179.02611.35817.05114.5377.07353a.33193.33193,0,0,0,.13414.05376,16.44569,16.44569,0,0,0,2.06446.21723l.00348.00073.00006-.00043c.02944.00134.0583.0037.08775.00506C33.56567,4.54891,33.57516,3.94963,33.22117,3.88516ZM9.16275,12.20737a.335.335,0,0,0-.01884-.07143.3295.3295,0,0,0,.02039-.09134c.01122.00319.02238.00682.03372.00913.02671.05438.05288.10937.08075.1619C9.24019,12.2123,9.20148,12.20985,9.16275,12.20737Z" transform="translate(-1.09464 -2.53774)"/><path class="cls-4" d="M8.43323,9.17981c-.34689-.07622-.6394-.26137-.99617-.09564A.28016.28016,0,0,0,7.273,9.3584a.255.255,0,0,0,.25813.25515c.00454-.00024.00987.0001.01531-.00025a.58182.58182,0,0,0,.37864.00584,3.34864,3.34864,0,0,1,.41813.04322A.24557.24557,0,0,0,8.43323,9.17981Z" transform="translate(-1.09464 -2.53774)"/><path class="cls-5" d="M10.07247,13.63913a.27381.27381,0,0,0-.24832-.36331l-.29084.00507a.25.25,0,0,0-.23531-.15844,5.91208,5.91208,0,0,0-1.20079.17024,14.99463,14.99463,0,0,1-2.39256-.1814.22527.22527,0,0,0-.24071.09945.22906.22906,0,0,0-.07039.02709l-.03058.01891a.23657.23657,0,0,0-.24549-.05394,2.53438,2.53438,0,0,0-.31152.16039,2.86749,2.86749,0,0,0-.7772.11365.29567.29567,0,0,0-.11859-.02456,1.8242,1.8242,0,0,0-1.375.84671,3.76152,3.76152,0,0,0-.95908,1.2278c-.01361.0133-.02652.02805-.03955.04054a.19721.19721,0,0,0-.06305.20913l-.002.00465a.254.254,0,0,0,.055.26258,17.192,17.192,0,0,0-.23927,2.24314c-.021.49276-.08876,1.46062.43415,1.76353a3.3129,3.3129,0,0,0,.18277.53391.26066.26066,0,0,0,.00654.13164,2.33144,2.33144,0,0,0,.3481.7258.23472.23472,0,0,0,.19676.099c.10772.1804.21128.36471.30862.55484a.24908.24908,0,0,0,.41633.07731A1.497,1.497,0,0,0,3.503,21.219c.00109-.0075.00022-.0139.00079-.021.01124-.06531.02066-.13039.03147-.19574a.2346.2346,0,0,0,.09109-.14851c.03844-.19112.06928-.38247.09483-.57459a.19891.19891,0,0,0,.0986-.16625c.0722-.84642.07573-1.69648.13-2.54279.10069-.48482.22752-.9672.34807-1.4496.35376-.30941.73254-.59008,1.08866-.89423.1648-.10234.33441-.19748.50652-.28823q.50122-.05612,1.00209-.11613a14.74106,14.74106,0,0,0,2.6354-.42295.24762.24762,0,0,0,.15438-.27855q.15191-.03969.30088-.08065A.24024.24024,0,0,0,10.07247,13.63913ZM2.25528,18.12291c.01615-.2047.035-.40946.06252-.612-.01063.21-.02666.42007-.0454.63023ZM2.875,21.29153a.285.285,0,0,0,.12107.00136A.23155.23155,0,0,0,3,21.32174q-.00767.07635-.02044.15064C2.94563,21.41178,2.91035,21.35144,2.875,21.29153Z" transform="translate(-1.09464 -2.53774)"/><path class="cls-5" d="M20.23241,17.09791a9.46588,9.46588,0,0,0-.96852-.333c-.04171-.01905-.08343-.03789-.12563-.05681a1.20726,1.20726,0,0,0-.61448-.3249.231.231,0,0,0-.269.15822.19533.19533,0,0,0-.017.21961c.26831.551,1.00242,1.17279,1.65239,1.00727a.221.221,0,0,0,.15811-.21423c.011.00159.02085.00481.03189.00618A.24666.24666,0,0,0,20.23241,17.09791Z" transform="translate(-1.09464 -2.53774)"/><path class="cls-5" d="M33.0082,4.52506a.23582.23582,0,0,0-.1933-.24376c-.26665-.066-.53707-.12129-.8093-.16427a6.32455,6.32455,0,0,0-.72365-.12918.23674.23674,0,0,0-.13471-.22968,3.84849,3.84849,0,0,0-1.72683-.23843c-.11267-.03449-.22733-.06456-.3425-.09109a.22333.22333,0,0,0-.18208-.15369,10.19279,10.19279,0,0,0-3.28458.37821c-.21011.02752-.43233.05172-.65609.08356-.39318.04506-.7864.09031-1.18089.12888a3.21873,3.21873,0,0,0-1.51651.44655c-.0731.03343-.14514.06881-.2186.10152a.19487.19487,0,0,0-.181-.05245,4.21609,4.21609,0,0,0-1.4273.55937,1.35581,1.35581,0,0,0-.15858.11515.19422.19422,0,0,0-.12453.125l-.00074.00192a1.64314,1.64314,0,0,0-.233.90869.24855.24855,0,0,0,.035.16451c-.13921.28859-.27.57753-.41046.83787A12.21946,12.21946,0,0,0,18.40939,9.7843a9.88906,9.88906,0,0,0-.51414.92751,4.12206,4.12206,0,0,0-.75309,1.61352.24684.24684,0,0,0,.40423.22621.24467.24467,0,0,0,.3515.09085,4.06218,4.06218,0,0,0,1.19055-1.97077c.31626-.761.67168-1.49169.94422-2.25477a17.67027,17.67027,0,0,0,1.47452-2.1612.2721.2721,0,0,0,.08059-.0292c.298-.16909.58519-.35408.86919-.54448l.05465-.03633c.13185-.08871.26223-.17964.39256-.27037a.28778.28778,0,0,0,.0624.00634A15.99245,15.99245,0,0,0,25.323,5.1204c.17625-.01066.35165-.02186.52768-.02785a8.903,8.903,0,0,0,2.15053-.20075c.77593.013,1.555-.06711,2.33426-.09852a10.18212,10.18212,0,0,0,1.10677.08223A5.19379,5.19379,0,0,0,32.868,4.948.244.244,0,0,0,33.0082,4.52506Z" transform="translate(-1.09464 -2.53774)"/><path class="cls-2" d="M14.45347,8.13563c-.32275-.06-.69487.28341-1.01742.35237a9.05685,9.05685,0,0,1-1.68513.09723.23428.23428,0,0,0-.09839.02191c-.078-.01981-.15411-.0398-.22716-.05936a5.81084,5.81084,0,0,0-3.19867-.42649c-.30551.08469-.1379.54635.16576.46208,1.78295-.494,4.78614,1.94441,6.20181-.04589A.24867.24867,0,0,0,14.45347,8.13563Z" transform="translate(-1.09464 -2.53774)"/><path class="cls-6" d="M9.77738,13.7635a.25574.25574,0,0,0-.23718-.15175c-.66073.01329-1.31766.05609-1.96984.1344a7.88311,7.88311,0,0,0-1.2944.19015,3.681,3.681,0,0,0-.39686.06113A.22667.22667,0,0,0,5.66,13.88891a3.18811,3.18811,0,0,0-.50088.122.22389.22389,0,0,0-.24016.07686l-.01759.01923a2.85678,2.85678,0,0,0-.95753.65207.222.222,0,0,0-.141.124c-.01275.026-.02251.0531-.034.07952-.03434.04488-.06861.08931-.09974.13691a.25351.25351,0,0,0-.15109.11916,2.24991,2.24991,0,0,0-.144.30026.22519.22519,0,0,0-.21363.13255,2.53856,2.53856,0,0,0-.10416.25439.23184.23184,0,0,0-.31055.15669.28991.28991,0,0,0-.19175-.087c-.003-.035-.00376-.07015-.00722-.10523a.23733.23733,0,0,0-.1593-.19955c-.005-.111-.011-.22209-.01918-.33285a.24634.24634,0,0,0-.48556-.02423c-.0101.045-.01672.09075-.026.13613a.25346.25346,0,0,0-.14123.16592c-.54708,1.99923.0968,4.06075.69926,5.97079a.21567.21567,0,0,0,.13371.13744,1.8987,1.8987,0,0,0,.14681.354.24793.24793,0,0,0,.34115.06328c.53718-.2923.58926-.82906.59975-1.37948.00134-.00923.00306-.018.0035-.02734.00726-.18667.0105-.37348.0124-.56046.05067-1.04533.22364-2.07925.19469-3.12983a.21773.21773,0,0,0,.13269-.17525c.01819-.12266.0313-.24426.04169-.36582a.22077.22077,0,0,0,.2284-.19419,5.08894,5.08894,0,0,0,.06121-.57809.213.213,0,0,0,.28291-.12411c.00946-.028.01887-.05588.02788-.084a.23045.23045,0,0,0,.38689-.06055c.05483-.1461.159-.60214.33552-.7203.04446-.00927.089-.01922.13308-.029A5.625,5.625,0,0,0,7.247,14.50323c.213-.03519.4264-.06966.64051-.1.11947-.01573.23975-.03065.35918-.04593.1086-.0119.21729-.02133.32625-.02936a.26812.26812,0,0,0,.22154.12615,6.60648,6.60648,0,0,0,.90807-.10865.239.239,0,0,0,.18573-.12895A.25276.25276,0,0,0,9.77738,13.7635Z" transform="translate(-1.09464 -2.53774)"/><path class="cls-6" d="M33.60532,4.2066a20.50086,20.50086,0,0,0-4.78378-.59208.21038.21038,0,0,0-.24562-.1678,17.94856,17.94856,0,0,0-2.37731.52631c-.54927.143-1.10218.23054-1.645.37565-.14319.015-.2852.03125-.42773.0479a.25548.25548,0,0,0-.26573-.08156c-.30721.07164-.61456.12866-.91746.19531a.19249.19249,0,0,0-.16273-.033c-.02085.00439-.04139.00971-.06227.01433l.00013-.00088-.01221.00384a4.46314,4.46314,0,0,0-.48322.13644c-.29941.07366-.60155.135-.90166.21038a.25429.25429,0,0,0-.10531.39567c-.06541.21621-.13885.42878-.20077.64571-1.175,1.70537-1.63579,3.859-2.92473,5.47018a.22982.22982,0,0,0-.032.02275c-.01637.0138-.03149.02823-.04695.04193l0,.00023c-.21127.18453-.41156.37695-.60338.57913a.25145.25145,0,0,0-.16127.115q-.07855.124-.15714.24805c-.15251.24088.229.4719.40625.26807q.09125-.10434.18323-.20478a.25892.25892,0,0,0,.14488-.06705c1.728-1.56944,2.16623-3.94322,3.36893-5.86149a.23849.23849,0,0,0,.28719-.18771c.0106-.05167.023-.10311.0345-.15465a.25577.25577,0,0,0,.30115-.04534,3.74012,3.74012,0,0,1,.508-.4443c.14653-.04727.29087-.10139.4324-.16086A14.76819,14.76819,0,0,0,24.85,5.24214l.01713.00271c.02223.00163.04419.00191.066.003l-.00006.00043.00185-.0004a9.078,9.078,0,0,0,1.45119-.04171c.19177.00933.384.02165.57812.03942a2.32939,2.32939,0,0,0,1.10035-.106.23951.23951,0,0,0,.14968-.15934c.55112-.00983,1.09992-.05348,1.64762-.08312l.00826.00186a9.67113,9.67113,0,0,0,3.30419-.08545.19125.19125,0,0,0,.13962-.11139l.26729-.00981C33.86658,4.68226,33.86872,4.264,33.60532,4.2066Z" transform="translate(-1.09464 -2.53774)"/><path class="cls-7" d="M16.77161,3.50258c-.28638.45524-.38582,1.18275-.64473,1.6779C15.87766,4.69309,16.15223,3.46593,16.77161,3.50258Z" transform="translate(-1.09464 -2.53774)"/><path class="cls-7" d="M17.33129,4.07285a10.43942,10.43942,0,0,1,2.17635.47122A8.31245,8.31245,0,0,1,17.33129,4.07285Z" transform="translate(-1.09464 -2.53774)"/><path class="cls-7" d="M9.00039,9.84727a1.02233,1.02233,0,0,1,.93855,1.04007C9.63225,10.53644,9.44273,10.10507,9.00039,9.84727Z" transform="translate(-1.09464 -2.53774)"/><path class="cls-7" d="M14.49867,11.06955c.89352.39517.26661,2.7165-.63106,2.6789A3.33979,3.33979,0,0,0,14.49867,11.06955Z" transform="translate(-1.09464 -2.53774)"/><path class="cls-7" d="M8.42732,11.13856c-1.577-.11638-3.18852-.28244-4.729-.34662-.44431.14386-.53065.80882-.976.95051.23292-1.72448,1.8463-1.04035,3.3765-.97005A4.65406,4.65406,0,0,1,8.42732,11.13856Z" transform="translate(-1.09464 -2.53774)"/><path class="cls-7" d="M17.85,14.88854c-.13826.25709-.50209.54619-.73934.3951C17.25538,15.00325,17.43157,14.76961,17.85,14.88854Z" transform="translate(-1.09464 -2.53774)"/><path class="cls-7" d="M17.89187,16.09478a2.35441,2.35441,0,0,1-1.56088-.55661C16.79939,15.33335,17.63809,15.78481,17.89187,16.09478Z" transform="translate(-1.09464 -2.53774)"/><path class="cls-7" d="M35.491,4.52012c-.23274.39788-.74851.25365-1.12552.32349a19.57582,19.57582,0,0,1-3.33273.37886c-2.57752,1.072-6.73641.36978-8.89125,2.34136A8.12882,8.12882,0,0,0,20.27567,10.08c-.18752.43945-.33074,1.21811-.54009,1.83a8.54359,8.54359,0,0,0-.63276,1.61362A3.74534,3.74534,0,0,0,20.14289,15.448a17.41345,17.41345,0,0,0,2.21823,1.67769c.183.855-.32663,1.61481-.90229,1.62987-.36114.00971-.51364-.249-.85331-.42483-.61989-.32187-1.49266-.55326-1.7584-.9265-2.75772-.41051-6.07235-1.004-7.62351-2.68283-2.05384.662-4.90751.15726-6.16156,1.98345-.01926.85-.657,1.45877-.89338,2.2976-.35681,1.26464-.03827,3.042-1.13255,3.58419-.40948-.32959-.481-.56807-.98655-.78271a14.42179,14.42179,0,0,1-.587-8.29833c.31308-1.1798.91819-3.10214,1.79992-3.59362a18.50852,18.50852,0,0,1,5.20818.63554c.13187-.73448-1.2715-.88366-1.87548-1.0144.16036-.8568,1.17087-.47546,1.31716-1.35292,1.13886-1.28463,3.93415.4925,5.64967.05184a2.48234,2.48234,0,0,0,1.357-1.21241c.56688-1.20192-.14639-2.967.73018-3.9256.53513-.58542,2.28547-.59934,3.62588-.52415,1.46118.08187,2.87459.22669,4.09815.163a19.98845,19.98845,0,0,1,3.41372-.09768c2.05194.22933,3.89514.68154,5.98474,1.113C33.77853,3.95615,34.891,3.93683,35.491,4.52012ZM7.89727,8.9763c.23268.08352.59046.0814.60774.3127-.54493-.11052-.85738-.28507-1.19405-.02234.73792.27272,1.68589-.26373,1.78974.39957a1.08137,1.08137,0,0,0-.93689.0254,1.22992,1.22992,0,0,1,.50274.15989c.75342,2.51792,2.12881,5.3805,5.86692,5.68542a12.17223,12.17223,0,0,1,1.61667-.099c-.49574.47751-1.44471.29482-2.09842.542a13.31045,13.31045,0,0,0,4.183.77775c.09656-.18632.25921-.27686.35316-.46668a24.80479,24.80479,0,0,1,3.10293,1.57532c.12627-.11532.124-.419.23616-.555-.68484-.65508-1.58717-1.04835-2.20629-1.74175-.3002-.3367-.49835-.82951-.77348-1.20929-.29091-.40091-.59817-.79767-.91449-1.16883-.65774-.77084-1.43271-1.27166-2.01763-2.03983.74227.23946,1.04086.78294,1.65809,1.10759.39457-.22853.98224-.36061,1.01623-.80972.054-.71164-1.65207-1.3198-1.64347-1.90373a6.89807,6.89807,0,0,1,1.85612,1.4771,4.3313,4.3313,0,0,0,.36053-.86531c-.58626-.30893-1.49861-.692-1.65818-1.10691.69489.182,1.21485.76925,1.77045.86177.15979-.80949-.56318-1.20713-.95944-1.6435a4.788,4.788,0,0,1-1.10011-1.60255c.75566.82968,1.60786,1.88913,2.31973,2.56224.021-.16043.04786-.31213.13635-.37433-.68126-.5991-1.4986-1.10493-1.68377-2.04428a9.80874,9.80874,0,0,0,1.79607,1.79894A8.72942,8.72942,0,0,1,21.61623,5.735c-1.21641-.1439-3.12063-.28609-3.58464-1.13262,1.37955.33862,2.862,1.03658,4.23568.85431a13.977,13.977,0,0,0,1.81213-.79494c1.55068-.48088,3.32622-.39281,4.72313-1.05249a4.42165,4.42165,0,0,0-1.94235-.29454c.07079.30529-1.05333.256-1.36635.54464.15.00936.23914.06063.23355.17681-.26721.01546-.5831.023-.61973-.24842a2.49813,2.49813,0,0,1,1.68825-.485c-1.253-.30369-2.55073.09255-3.85261-.05047-1.06311-.117-2.18859-.20983-3.418-.23636-1.57766-.03407-2.93691-.02261-3.71463.64088-.35562,1.48622.16828,2.31918-.272,3.61127-.32168.94437-1.51985,1.45651-1.625,2.29459-.03559.28316.21139.59374.11395.82013-.79483-.42556-.19829-1.51271.14158-1.83806C12.67008,9.843,8.88016,6.69029,7.89727,8.9763ZM29.31771,3.70494c-1.31569.97365-3.5163.65746-5.04035,1.32679a14.905,14.905,0,0,0,5.483-.84463,2.76428,2.76428,0,0,1-.543-.30087c.66644.01559,1.422.25606,2.01862.24226.1915-.00439.60475.02285.48649-.10946C30.99791,4.02666,30.063,3.72792,29.31771,3.70494Zm3.39907.6989c-.00557.20915.26049.23261.4024.34116.01827-.19137.18187-.1706.20017-.3622C33.06729,4.31535,32.96839,4.47124,32.71678,4.40383Zm-1.74565.0748a1.84243,1.84243,0,0,0,1.36373.18722A2.92879,2.92879,0,0,0,30.97113,4.47863Zm-2.90589.59151a2.58669,2.58669,0,0,0,2.57717-.25332C29.68891,4.46351,28.87162,4.94431,28.06524,5.07014ZM26.02645,5.29a3.59046,3.59046,0,0,0,2.36495.17359C27.66408,4.8942,26.84212,5.14014,26.02645,5.29Zm-1.07707.06621c.49541.03375.795.54213,1.21076.29173C25.83357,5.44059,25.34211,5.05984,24.94938,5.35621ZM23.514,5.55538a1.7084,1.7084,0,0,0,1.7615.19429C24.7551,5.47609,23.95718,5.16817,23.514,5.55538ZM22.98,5.92226c.07824.11415.24915.16516.2734.31709a1.11,1.11,0,0,0,.57478-.226C23.48971,5.96549,23.16241,5.43423,22.98,5.92226Zm-.63905.214c.21621.11346.27588.3343.519.4292.02712-.06949.09026-.08687.15254-.10457C23.04808,6.125,22.55778,5.8232,22.34092,6.13628Zm-.29357.145a13.285,13.285,0,0,0-1.87786,2.58043c.04732.02368.12658.02528.11659.08806.4999-.3076.59815-1.20077,1.08358-1.52953.05369.17528-.23881.232-.06.32162.36149-.428.8337-.69332,1.20483-1.10735C22.29233,6.56217,22.34182,6.30392,22.04735,6.28129Zm-2.439,3.80764c.04732.0237.12657.02551.11656.08828.35609-.10834.431-.6261.58981-1.0221a.36713.36713,0,0,1-.24557-.11233C19.80857,9.36345,19.79272,9.82371,19.60838,10.08893Zm-.60179,1.08641c.12794.09957.17374.25484.33856.32921.07722-.48709.33689-.708.42009-1.18678q-.12861-.02365-.25715-.04776C19.319,10.54017,19.17783,10.87945,19.00659,11.17534Zm-.99487,1.413a5.10115,5.10115,0,0,1,.636.51777c.1226-.50276.43035-.73622.50886-1.30371-.16287-.05682-.15832-.22792-.3506-.26473C18.69977,12.11938,18.27362,12.234,18.01172,12.58835ZM3.31941,10.32218c-2.1708,3.06256-2.256,8.887-.924,11.41282-.078-.95707-.67794-2.34131-.33109-3.58988.25711,1.37638.48469,2.77365.83846,4.08407,1.00162-.42316.56315-2.24075.87974-3.2988.127-.42441.49817-.65273.52509-1.03416-.35223-.76862-.34349-1.785-.65126-2.58465C2.59137,16.3123,3.48,18.116,3.16013,19.41428c-.2857-.89012-.12633-2.08453-.37477-2.99936-.29749,1.79509.20017,3.34325.10378,4.81309a15.15537,15.15537,0,0,1-.46591-5.01368c-.44081-.21244-.91809-.90214-.55664-1.30207a4.565,4.565,0,0,0,.61668.98023c.18562-.42312.06779.118.23356.17661.299-.80933,1.01391-1.00451,1.09091-1.9277-.06945.19742.07355.24888-.01975.46239a1.71747,1.71747,0,0,0,.639-.214c.09049-.21571-.10456-.52193.11964-.64375a1.07857,1.07857,0,0,0,.04494.47469c.48034-.55428,1.50815-.31125,2.227-.518.06351-.24948-.18815-.28254-.09724-.55074.29369.16464.22228.64875.70026.52977.20848-.07514-.10227-.26159.01979-.46264.2237.08965.11432.40794.37839.46995a13.75723,13.75723,0,0,0,2.01441-.09157,5.53747,5.53747,0,0,1-1.178-2.61577A27.6897,27.6897,0,0,0,3.31941,10.32218ZM7.99331,14.1875c.22763.16182.24681.46684.48387.62239.67408-.21726,1.465-.264,2.098-.54181C9.927,13.55791,8.90962,14.29494,7.99331,14.1875Zm.22628.57456c-.40594-.13372-.3-.91575-.93387-.70615C7.48433,14.31593,7.75586,15.04951,8.21959,14.76206Zm-1.26774-.7017a7.45788,7.45788,0,0,0-2.3033.5705c.0474.58484.24434,1.06737.29174,1.65221.732-.67932,1.35664-1.514,2.59952-1.4476C7.1686,14.69778,7.2622,14.24024,6.95186,14.06036Zm11.51644,2.87388c.67208.11926,1.11127.69658,1.74218.65674C19.56516,17.4666,19.01612,16.41936,18.46829,16.93424ZM4.42,17.65068c.64485-1.15424.25337-2.02106.02377-2.99151C3.28585,14.8338,4.47386,16.86854,4.42,17.65068Z" transform="translate(-1.09464 -2.53774)"/><path class="cls-7" d="M11.12239,9.17668c.44722.45047-.09678,1.516-.56839,1.62519A7.373,7.373,0,0,0,11.12239,9.17668Z" transform="translate(-1.09464 -2.53774)"/><path class="cls-7" d="M9.70209,8.57956c-.08066.58852-.56866.4043-.85593.307A.58065.58065,0,0,1,9.70209,8.57956Z" transform="translate(-1.09464 -2.53774)"/></svg>