<?xml version="1.0" standalone="no"?>
<!DOCTYPE svg PUBLIC "-//W3C//DTD SVG 20010904//EN"
 "http://www.w3.org/TR/2001/REC-SVG-20010904/DTD/svg10.dtd">
<svg version="1.0" xmlns="http://www.w3.org/2000/svg"
 width="1152.000000pt" height="1152.000000pt" viewBox="0 0 1152.000000 1152.000000"
 preserveAspectRatio="xMidYMid meet">
<metadata>
Created by potrace 1.14, written by Peter Selinger 2001-2017
</metadata>
<g transform="translate(0.000000,1152.000000) scale(0.100000,-0.100000)"
fill="#000000" stroke="none">
<path d="M5506 9113 c-1 -2 -36 -5 -77 -8 -147 -10 -332 -45 -384 -73 -11 -5
-24 -11 -30 -12 -17 -4 -60 -24 -65 -31 -3 -3 -20 -14 -37 -24 -18 -11 -33
-22 -33 -25 0 -4 -8 -15 -19 -26 -23 -25 -73 -103 -75 -118 -1 -6 -5 -17 -9
-24 -5 -7 -11 -24 -13 -39 -3 -15 -8 -31 -12 -37 -3 -6 -7 -15 -8 -21 -4 -26
-25 -127 -39 -194 -19 -91 -21 -212 -3 -248 8 -17 13 -58 12 -103 -2 -95 -12
-247 -18 -280 -3 -14 -7 -42 -10 -64 -4 -21 -9 -42 -12 -47 -3 -5 -7 -19 -9
-30 -8 -40 -66 -154 -107 -209 -73 -97 -152 -168 -259 -230 -145 -86 -261 -99
-569 -65 -43 5 -138 23 -212 40 -13 3 -43 10 -68 15 -25 5 -55 12 -67 15 -81
19 -137 29 -145 27 -5 -1 -8 1 -8 5 0 5 -10 9 -22 9 -13 1 -34 4 -48 8 -30 7
-113 24 -155 31 -16 3 -41 7 -55 10 -131 28 -365 24 -460 -8 -19 -6 -37 -11
-40 -12 -3 0 -30 -15 -60 -32 -64 -37 -105 -78 -114 -113 -5 -22 -61 -86 -137
-157 -13 -12 -42 -26 -64 -31 -86 -19 -213 -139 -227 -214 -5 -24 -2 -27 41
-34 25 -4 48 -8 51 -9 3 -1 28 -5 55 -10 28 -4 54 -10 59 -13 6 -3 19 -7 30
-8 32 -3 69 -12 115 -28 22 -9 41 -13 41 -11 0 2 31 -12 70 -31 59 -28 149
-102 150 -123 1 -3 5 -25 9 -48 9 -49 5 -51 -63 -32 -21 6 -46 12 -55 14 -9 2
-44 11 -78 20 -34 8 -74 18 -90 20 -15 2 -46 9 -68 14 -22 5 -53 12 -70 15
-16 2 -55 9 -85 15 -30 6 -72 14 -93 16 -21 3 -48 7 -60 10 -34 8 -166 26
-222 30 -27 2 -50 4 -50 5 0 1 -20 4 -45 5 -25 2 -65 6 -90 10 -76 9 -214 16
-449 20 -245 5 -240 6 -308 -59 -12 -12 -28 -26 -35 -33 -7 -6 -24 -26 -38
-45 -14 -18 -37 -46 -52 -61 -15 -15 -37 -47 -50 -70 -13 -23 -26 -44 -31 -45
-4 -2 -5 -8 -1 -13 3 -5 0 -9 -6 -9 -6 0 -8 -5 -5 -10 3 -6 -4 -14 -17 -19
-28 -11 -58 -43 -63 -68 -2 -10 -4 -18 -5 -18 -3 0 -11 -52 -14 -95 -2 -25
-18 -81 -35 -125 -18 -44 -34 -84 -35 -90 -2 -5 -6 -17 -9 -25 -8 -23 -49
-149 -51 -163 -2 -7 -6 -19 -9 -27 -6 -15 -45 -150 -52 -181 -2 -8 -10 -44
-19 -80 -9 -35 -18 -80 -21 -99 -3 -19 -8 -42 -10 -50 -3 -8 -7 -33 -10 -55
-3 -22 -7 -51 -10 -64 -2 -14 -9 -61 -15 -105 -6 -45 -13 -94 -16 -111 -2 -16
-6 -61 -8 -100 -3 -38 -6 -70 -7 -70 -4 0 -11 -208 -12 -360 0 -145 8 -400 13
-400 0 0 3 -20 5 -45 2 -25 7 -72 10 -105 4 -33 8 -76 10 -95 2 -19 6 -55 9
-80 3 -25 8 -74 12 -110 8 -79 7 -79 34 -164 12 -38 24 -77 26 -87 2 -11 6
-29 9 -41 3 -13 8 -36 11 -52 2 -16 8 -34 11 -39 3 -6 7 -20 9 -31 2 -12 13
-55 25 -96 11 -41 25 -97 31 -123 5 -27 27 -89 49 -138 21 -50 39 -95 39 -102
0 -12 99 -77 117 -77 5 0 16 -11 23 -25 7 -14 26 -33 42 -43 15 -10 56 -46 92
-80 l63 -62 54 36 c101 67 184 213 214 379 19 100 28 171 41 290 17 170 17
168 29 270 4 33 9 69 12 80 2 11 6 34 9 50 3 17 12 55 21 85 9 30 17 61 19 68
3 18 26 66 84 182 81 160 95 185 103 188 4 2 7 9 7 16 0 7 9 32 21 56 19 39
43 109 56 164 2 12 6 39 7 62 3 63 70 147 196 246 41 32 81 63 88 69 6 5 12 7
12 4 0 -4 12 2 28 13 31 22 168 83 227 101 22 7 47 15 55 18 18 7 18 7 105 28
39 9 84 19 100 22 40 7 60 11 60 13 0 1 12 3 28 5 15 2 62 9 105 16 42 6 91
13 107 15 17 2 46 6 65 9 19 3 55 7 80 10 101 10 137 14 170 19 19 3 71 10
115 15 155 21 170 23 188 27 51 12 64 14 99 19 21 3 71 15 111 26 135 37 126
38 193 -26 76 -73 201 -168 306 -230 92 -55 179 -99 191 -97 4 1 7 -3 7 -8 0
-6 5 -10 10 -10 6 0 29 -9 53 -19 23 -11 71 -31 107 -46 36 -14 74 -30 85 -34
27 -12 118 -45 130 -47 6 -1 42 -13 80 -27 39 -13 72 -24 75 -25 3 0 32 -8 65
-18 33 -10 65 -19 70 -20 6 -1 46 -12 90 -24 44 -12 91 -23 105 -26 14 -3 54
-12 90 -20 63 -14 105 -24 115 -25 2 0 33 -7 67 -16 35 -8 74 -16 88 -18 14
-1 34 -5 45 -8 11 -3 38 -8 60 -12 22 -3 47 -7 55 -10 8 -2 31 -6 50 -9 19 -3
46 -8 60 -10 14 -3 41 -7 60 -10 19 -3 46 -8 60 -10 14 -3 43 -7 65 -11 48 -7
90 -13 130 -20 17 -3 44 -8 61 -10 31 -4 91 -34 189 -91 72 -43 127 -68 347
-163 142 -60 185 -83 268 -142 75 -52 111 -68 160 -71 173 -9 327 179 332 403
3 136 5 131 -102 201 -52 34 -97 65 -100 68 -3 4 -34 26 -70 50 -36 24 -67 46
-70 49 -3 3 -39 31 -80 62 -41 31 -85 65 -97 75 -12 11 -30 26 -40 34 -234
188 -329 297 -433 495 -24 46 -61 136 -66 160 -1 6 -9 29 -18 53 -8 23 -13 42
-11 42 3 0 0 12 -6 27 -8 21 -3 48 25 138 19 61 43 129 52 150 10 22 18 45 20
50 1 6 25 60 54 120 28 61 61 139 72 175 20 65 47 162 53 190 2 8 8 30 14 48
5 18 10 33 10 35 0 1 2 9 4 17 11 34 28 106 27 113 0 4 7 21 15 37 8 16 15 32
15 35 -2 15 24 85 32 85 4 0 7 4 6 8 -3 7 41 101 52 112 3 3 12 19 20 35 8 17
17 32 20 35 3 3 12 19 20 35 8 17 17 32 20 35 3 3 23 32 44 65 43 66 150 210
175 236 9 9 27 31 41 49 77 97 270 275 375 345 68 45 255 150 262 147 2 -1 17
5 35 12 18 7 42 17 53 21 11 4 27 9 35 11 8 2 23 8 35 13 25 13 258 80 303 87
19 3 44 8 56 11 58 13 134 28 194 37 78 12 119 19 137 22 11 2 40 6 65 9 25 4
80 11 124 16 43 6 92 12 110 14 17 1 63 6 101 10 39 4 79 9 90 11 11 2 49 7
85 10 95 9 115 12 115 14 0 1 16 3 35 5 19 2 60 6 90 10 30 3 71 8 90 10 61 7
269 41 310 51 40 10 74 16 95 19 11 2 20 4 20 5 0 2 5 3 55 13 38 9 221 63
255 77 17 6 30 10 30 9 0 -1 9 3 21 9 11 6 83 14 160 17 76 3 157 8 179 10
176 15 329 31 379 41 10 2 44 6 75 10 31 3 63 7 71 9 8 1 35 6 60 10 25 4 54
9 65 12 94 19 196 33 277 37 125 6 169 19 215 62 37 35 37 36 18 50 -11 8 -29
23 -40 33 -28 23 -137 75 -200 93 -95 29 -196 50 -330 68 -44 6 -93 14 -110
16 -16 3 -46 7 -65 9 -38 4 -58 8 -165 31 -38 8 -81 17 -95 19 -20 4 -98 20
-230 49 -22 5 -94 20 -105 22 -5 1 -12 3 -15 4 -8 3 -31 7 -74 14 -21 3 -41 8
-45 10 -3 2 -22 7 -41 10 -19 3 -46 8 -60 12 -14 3 -34 7 -45 9 -32 6 -65 14
-83 19 -9 3 -33 8 -52 11 -19 2 -55 9 -80 15 -25 6 -56 12 -70 14 -76 13 -97
17 -113 22 -10 3 -32 8 -50 11 -18 2 -41 6 -52 8 -80 16 -439 77 -475 81 -25
3 -54 7 -65 9 -11 2 -45 6 -75 10 -30 3 -68 8 -85 11 -151 23 -726 23 -970 0
-22 -2 -80 -7 -130 -11 -49 -4 -93 -9 -98 -12 -10 -6 -440 -6 -542 1 -44 3
-132 8 -195 12 -186 10 -252 14 -305 18 -55 4 -204 14 -335 22 -97 6 -599 12
-604 7z m4189 -862 c-6 -5 -23 -12 -40 -15 -28 -6 -28 -5 5 8 43 18 46 18 35
7z m-2587 -573 c-59 -54 -138 -119 -138 -113 0 14 132 135 147 135 12 0 10 -5
-9 -22z m-288 -251 c0 -2 -12 -14 -27 -28 l-28 -24 24 28 c23 25 31 32 31 24z
m-410 -603 c-12 -32 -22 -63 -23 -69 -1 -5 -6 -16 -10 -22 -5 -7 -10 -22 -12
-33 -6 -34 -95 -151 -95 -126 0 4 28 62 62 129 34 67 68 136 77 154 23 49 23
33 1 -33z m-160 -329 c0 -8 -4 -24 -9 -37 -31 -80 -48 -121 -77 -183 -18 -38
-36 -87 -39 -108 -9 -44 -16 -51 -39 -34 -19 14 -19 16 56 177 20 41 48 103
63 138 26 59 45 79 45 47z m-5426 -196 c3 -3 -4 -5 -14 -6 -11 -1 -20 2 -20 7
0 8 25 8 34 -1z m5221 -308 c-4 -14 -8 -30 -9 -36 -13 -53 -27 -86 -76 -185
-32 -63 -64 -132 -70 -154 -11 -34 -14 -36 -27 -23 -10 9 -12 20 -7 29 5 7 9
15 10 18 0 3 4 14 9 25 4 11 32 81 61 155 80 207 82 210 100 203 11 -4 14 -13
9 -32z m-2655 -281 l35 -30 -42 17 c-23 9 -40 20 -37 24 3 5 1 9 -4 9 -6 0
-12 7 -16 15 -7 20 15 8 64 -35z m2585 -543 c8 -9 15 -20 15 -23 0 -3 13 -24
28 -47 16 -23 53 -85 82 -137 30 -52 57 -96 62 -98 4 -2 8 -10 8 -18 0 -8 5
-14 10 -14 6 0 10 -4 10 -10 0 -33 177 -201 297 -283 34 -23 63 -45 63 -49 0
-13 -81 33 -143 79 -31 24 -59 43 -61 43 -1 0 -27 24 -57 53 -30 28 -72 68
-95 87 -41 36 -83 90 -69 90 5 0 1 8 -7 18 -8 9 -34 55 -57 101 -53 104 -62
120 -83 150 -10 13 -15 27 -12 32 3 5 1 9 -4 9 -5 0 -14 17 -20 38 -10 34 -10
35 4 17 8 -11 21 -28 29 -38z m893 -906 c6 -8 12 -12 12 -9 0 3 21 -13 46 -36
l46 -42 -17 -55 c-9 -30 -18 -58 -20 -64 -2 -5 -4 0 -4 12 -1 12 -10 42 -21
67 -10 25 -17 46 -14 46 2 0 -14 26 -37 58 -23 31 -47 64 -53 72 -12 17 42
-26 62 -49z"/>
</g>
</svg>
